<?xml version="1.0" encoding="UTF-8" standalone="no"?>
<!DOCTYPE svg PUBLIC "-//W3C//DTD SVG 1.1//EN" "http://www.w3.org/Graphics/SVG/1.1/DTD/svg11.dtd">
<svg version="1.1" xmlns="http://www.w3.org/2000/svg" xmlns:xlink="http://www.w3.org/1999/xlink" preserveAspectRatio="xMidYMid meet" viewBox="0 0 640 640" width="640" height="640"><defs><path d="M438.21 181.65L285.38 182.07L208.6 315.07L284.64 447.64L437.47 447.21L514.26 314.22L438.21 181.65Z" id="aVGvQrgue"></path><path d="M392.64 208.43L239.8 208.86L163.02 341.86L239.06 474.43L391.9 474L468.68 341L392.64 208.43Z" id="b1gRwgAGcv"></path><path d="M362.12 212.57L274.29 263.61L274.29 365.68L362.12 416.72L449.95 365.68L449.95 263.61L362.12 212.57Z" id="d1nSNf2jTv"></path><path d="M362.12 249.48L306.04 282.06L306.04 347.23L362.12 379.81L418.19 347.23L418.19 282.06L362.12 249.48Z" id="d4DtMIZvVM"></path></defs><g><g><g><use xlink:href="#aVGvQrgue" opacity="1" fill="#4a32c3" fill-opacity="1"></use></g><g><g><filter id="shadow4514938" x="132.02" y="177.43" width="369.66" height="329.99" filterUnits="userSpaceOnUse" primitiveUnits="userSpaceOnUse"><feFlood></feFlood><feComposite in2="SourceAlpha" operator="in"></feComposite><feGaussianBlur stdDeviation="3.46"></feGaussianBlur><feOffset dx="2" dy="-2" result="afterOffset"></feOffset><feFlood flood-color="#000000" flood-opacity="0.5"></feFlood><feComposite in2="afterOffset" operator="in"></feComposite><feMorphology operator="dilate" radius="0"></feMorphology><feComposite in2="SourceAlpha" operator="out"></feComposite></filter><path d="M392.64 208.43L239.8 208.86L163.02 341.86L239.06 474.43L391.9 474L468.68 341L392.64 208.43Z" id="a60CvUagRv" fill="white" fill-opacity="1" filter="url(#shadow4514938)"></path></g><use xlink:href="#b1gRwgAGcv" opacity="1" fill="#c930c7" fill-opacity="1"></use></g><g><g><filter id="shadow7005903" x="243.29" y="181.57" width="237.66" height="266.15" filterUnits="userSpaceOnUse" primitiveUnits="userSpaceOnUse"><feFlood></feFlood><feComposite in2="SourceAlpha" operator="in"></feComposite><feGaussianBlur stdDeviation="3.46"></feGaussianBlur><feOffset dx="0" dy="0" result="afterOffset"></feOffset><feFlood flood-color="#000000" flood-opacity="0.5"></feFlood><feComposite in2="afterOffset" operator="in"></feComposite><feMorphology operator="dilate" radius="2"></feMorphology><feComposite in2="SourceAlpha" operator="out"></feComposite></filter><path d="M362.12 212.57L274.29 263.61L274.29 365.68L362.12 416.72L449.95 365.68L449.95 263.61L362.12 212.57Z" id="d4uc6Q5cnr" fill="white" fill-opacity="1" filter="url(#shadow7005903)"></path></g><use xlink:href="#d1nSNf2jTv" opacity="1" fill="#ffffff" fill-opacity="1"></use></g><g><use xlink:href="#d4DtMIZvVM" opacity="1" fill="#8080f2" fill-opacity="1"></use></g></g></g></svg>